<svg xmlns="http://www.w3.org/2000/svg" viewBox="0 0 24 30" x="0px" y="0px"><title>Brightness</title><g><path d="M12,18a6,6,0,1,1,6-6A6.006,6.006,0,0,1,12,18ZM12,8a4,4,0,1,0,4,4A4,4,0,0,0,12,8Z"/><path d="M12,5a1,1,0,0,1-1-1V1a1,1,0,0,1,2,0V4A1,1,0,0,1,12,5Z"/><path d="M6.343,7.343a1,1,0,0,1-.707-.293L3.515,4.929A1,1,0,0,1,4.929,3.515L7.05,5.636a1,1,0,0,1-.707,1.707Z"/><path d="M4,13H1a1,1,0,0,1,0-2H4a1,1,0,0,1,0,2Z"/><path d="M4.222,20.778a1,1,0,0,1-.707-1.707L5.636,16.95A1,1,0,0,1,7.05,18.364L4.929,20.485A1,1,0,0,1,4.222,20.778Z"/><path d="M12,24a1,1,0,0,1-1-1V20a1,1,0,0,1,2,0v3A1,1,0,0,1,12,24Z"/><path d="M19.778,20.778a1,1,0,0,1-.707-.293L16.95,18.364a1,1,0,0,1,1.414-1.414l2.121,2.121a1,1,0,0,1-.707,1.707Z"/><path d="M23,13H20a1,1,0,0,1,0-2h3a1,1,0,0,1,0,2Z"/><path d="M17.657,7.343a1,1,0,0,1-.707-1.707l2.121-2.121a1,1,0,0,1,1.414,1.414L18.364,7.05A1,1,0,0,1,17.657,7.343Z"/><path d="M12,18a6,6,0,1,1,6-6A6.006,6.006,0,0,1,12,18ZM12,8a4,4,0,1,0,4,4A4,4,0,0,0,12,8Z"/></g></svg>